<svg width="18" height="18" viewBox="0 0 18 18" fill="none" xmlns="http://www.w3.org/2000/svg">
<path d="M9.19995 0.5C11.5094 0.5 11.7976 0.5085 12.7037 0.551C13.6089 0.5935 14.2252 0.73545 14.7675 0.94625C15.3285 1.16215 15.8011 1.45455 16.2737 1.9263C16.7059 2.35121 17.0403 2.8652 17.2537 3.4325C17.4637 3.97395 17.6065 4.59105 17.649 5.4963C17.6889 6.4024 17.7 6.69055 17.7 9C17.7 11.3095 17.6915 11.5976 17.649 12.5037C17.6065 13.4089 17.4637 14.0252 17.2537 14.5675C17.0409 15.1351 16.7064 15.6492 16.2737 16.0737C15.8486 16.5058 15.3347 16.8402 14.7675 17.0538C14.226 17.2637 13.6089 17.4065 12.7037 17.449C11.7976 17.489 11.5094 17.5 9.19995 17.5C6.8905 17.5 6.60235 17.4915 5.69625 17.449C4.791 17.4065 4.17475 17.2637 3.63245 17.0538C3.06493 16.8408 2.55085 16.5063 2.12625 16.0737C1.69395 15.6489 1.35949 15.1348 1.1462 14.5675C0.935401 14.026 0.793451 13.4089 0.750951 12.5037C0.711001 11.5976 0.699951 11.3095 0.699951 9C0.699951 6.69055 0.708451 6.4024 0.750951 5.4963C0.793451 4.5902 0.935401 3.9748 1.1462 3.4325C1.3589 2.86485 1.69343 2.35072 2.12625 1.9263C2.55097 1.49385 3.06502 1.15937 3.63245 0.94625C4.17475 0.73545 4.79015 0.5935 5.69625 0.551C6.60235 0.51105 6.8905 0.5 9.19995 0.5ZM9.19995 4.75C8.07278 4.75 6.99178 5.19777 6.19475 5.9948C5.39772 6.79183 4.94995 7.87283 4.94995 9C4.94995 10.1272 5.39772 11.2082 6.19475 12.0052C6.99178 12.8022 8.07278 13.25 9.19995 13.25C10.3271 13.25 11.4081 12.8022 12.2052 12.0052C13.0022 11.2082 13.45 10.1272 13.45 9C13.45 7.87283 13.0022 6.79183 12.2052 5.9948C11.4081 5.19777 10.3271 4.75 9.19995 4.75ZM14.725 4.5375C14.725 4.25571 14.613 3.98546 14.4138 3.7862C14.2145 3.58694 13.9442 3.475 13.6625 3.475C13.3807 3.475 13.1104 3.58694 12.9111 3.7862C12.7119 3.98546 12.6 4.25571 12.6 4.5375C12.6 4.81929 12.7119 5.08954 12.9111 5.2888C13.1104 5.48806 13.3807 5.6 13.6625 5.6C13.9442 5.6 14.2145 5.48806 14.4138 5.2888C14.613 5.08954 14.725 4.81929 14.725 4.5375ZM9.19995 6.45C9.87625 6.45 10.5249 6.71866 11.0031 7.19688C11.4813 7.6751 11.75 8.3237 11.75 9C11.75 9.6763 11.4813 10.3249 11.0031 10.8031C10.5249 11.2813 9.87625 11.55 9.19995 11.55C8.52365 11.55 7.87505 11.2813 7.39683 10.8031C6.91861 10.3249 6.64995 9.6763 6.64995 9C6.64995 8.3237 6.91861 7.6751 7.39683 7.19688C7.87505 6.71866 8.52365 6.45 9.19995 6.45Z" fill="#fff"/>
</svg>