<svg xmlns="http://www.w3.org/2000/svg" xmlns:xlink="http://www.w3.org/1999/xlink" width="1648" height="643" viewBox="0 0 1648 643">
  <defs>
    <clipPath id="clip-path">
      <rect id="Rectangle_301" data-name="Rectangle 301" width="1648" height="643" transform="translate(136 7290)" fill="#fff" stroke="#707070" stroke-width="1"/>
    </clipPath>
  </defs>
  <g id="Pattern_-_Lines" data-name="Pattern - Lines" transform="translate(-136 -7290)" clip-path="url(#clip-path)">
    <g id="Group_755" data-name="Group 755" transform="translate(0 1934)">
      <line id="Line_221" data-name="Line 221" x2="646" y2="646" transform="translate(384.5 5352.918)" fill="none" stroke="#ffffff" stroke-width="1"/>
      <line id="Line_157" data-name="Line 157" x2="646" y2="646" transform="translate(-130.5 5352.918)" fill="none" stroke="#ffffff" stroke-width="1"/>
      <line id="Line_187" data-name="Line 187" x2="646" y2="646" transform="translate(900.5 5352.918)" fill="none" stroke="#ffffff" stroke-width="1"/>
      <line id="Line_253" data-name="Line 253" x2="646" y2="646" transform="translate(1576.5 5352.918)" fill="none" stroke="#ffffff" stroke-width="1"/>
      <line id="Line_120" data-name="Line 120" x2="646" y2="646" transform="translate(-387.5 5352.918)" fill="none" stroke="#ffffff" stroke-width="1"/>
      <line id="Line_204" data-name="Line 204" x2="646" y2="646" transform="translate(642.5 5352.918)" fill="none" stroke="#ffffff" stroke-width="1"/>
      <line id="Line_137" data-name="Line 137" x2="646" y2="646" transform="translate(127.5 5352.918)" fill="none" stroke="#ffffff" stroke-width="1"/>
      <line id="Line_170" data-name="Line 170" x2="646" y2="646" transform="translate(1157.5 5352.918)" fill="none" stroke="#ffffff" stroke-width="1"/>
      <line id="Line_234" data-name="Line 234" x2="646" y2="646" transform="translate(1833.5 5352.918)" fill="none" stroke="#ffffff" stroke-width="1"/>
      <line id="Line_105" data-name="Line 105" x2="646" y2="646" transform="translate(-516.5 5352.918)" fill="none" stroke="#ffffff" stroke-width="1"/>
      <line id="Line_209" data-name="Line 209" x2="646" y2="646" transform="translate(513.5 5352.918)" fill="none" stroke="#ffffff" stroke-width="1"/>
      <line id="Line_148" data-name="Line 148" x2="646" y2="646" transform="translate(-1.5 5352.918)" fill="none" stroke="#ffffff" stroke-width="1"/>
      <line id="Line_171" data-name="Line 171" x2="646" y2="646" transform="translate(1028.5 5352.918)" fill="none" stroke="#ffffff" stroke-width="1"/>
      <line id="Line_241" data-name="Line 241" x2="646" y2="646" transform="translate(1705.5 5352.918)" fill="none" stroke="#ffffff" stroke-width="1"/>
      <line id="Line_116" data-name="Line 116" x2="646" y2="646" transform="translate(-259.5 5352.918)" fill="none" stroke="#ffffff" stroke-width="1"/>
      <line id="Line_188" data-name="Line 188" x2="646" y2="646" transform="translate(771.5 5352.918)" fill="none" stroke="#ffffff" stroke-width="1"/>
      <line id="Line_261" data-name="Line 261" x2="646" y2="646" transform="translate(1447.5 5352.918)" fill="none" stroke="#ffffff" stroke-width="1"/>
      <line id="Line_129" data-name="Line 129" x2="646" y2="646" transform="translate(256.5 5352.918)" fill="none" stroke="#ffffff" stroke-width="1"/>
      <line id="Line_101" data-name="Line 101" x2="646" y2="646" transform="translate(-581.5 5352.918)" fill="none" stroke="#ffffff" stroke-width="1"/>
      <line id="Line_215" data-name="Line 215" x2="646" y2="646" transform="translate(449.5 5352.918)" fill="none" stroke="#ffffff" stroke-width="1"/>
      <line id="Line_153" data-name="Line 153" x2="646" y2="646" transform="translate(-65.5 5352.918)" fill="none" stroke="#ffffff" stroke-width="1"/>
      <line id="Line_172" data-name="Line 172" x2="646" y2="646" transform="translate(964.5 5352.918)" fill="none" stroke="#ffffff" stroke-width="1"/>
      <line id="Line_242" data-name="Line 242" x2="646" y2="646" transform="translate(1640.5 5352.918)" fill="none" stroke="#ffffff" stroke-width="1"/>
      <line id="Line_121" data-name="Line 121" x2="646" y2="646" transform="translate(-323.5 5352.918)" fill="none" stroke="#ffffff" stroke-width="1"/>
      <line id="Line_189" data-name="Line 189" x2="646" y2="646" transform="translate(706.5 5352.918)" fill="none" stroke="#ffffff" stroke-width="1"/>
      <line id="Line_138" data-name="Line 138" x2="646" y2="646" transform="translate(191.5 5352.918)" fill="none" stroke="#ffffff" stroke-width="1"/>
      <line id="Line_166" data-name="Line 166" x2="646" y2="646" transform="translate(1222.5 5352.918)" fill="none" stroke="#ffffff" stroke-width="1"/>
      <line id="Line_230" data-name="Line 230" x2="646" y2="646" transform="translate(1898.5 5352.918)" fill="none" stroke="#ffffff" stroke-width="1"/>
      <line id="Line_106" data-name="Line 106" x2="646" y2="646" transform="translate(-452.5 5352.918)" fill="none" stroke="#ffffff" stroke-width="1"/>
      <line id="Line_210" data-name="Line 210" x2="646" y2="646" transform="translate(578.5 5352.918)" fill="none" stroke="#ffffff" stroke-width="1"/>
      <line id="Line_139" data-name="Line 139" x2="646" y2="646" transform="translate(62.5 5352.918)" fill="none" stroke="#ffffff" stroke-width="1"/>
      <line id="Line_173" data-name="Line 173" x2="646" y2="646" transform="translate(1093.5 5352.918)" fill="none" stroke="#ffffff" stroke-width="1"/>
      <line id="Line_243" data-name="Line 243" x2="646" y2="646" transform="translate(1769.5 5352.918)" fill="none" stroke="#ffffff" stroke-width="1"/>
      <line id="Line_110" data-name="Line 110" x2="646" y2="646" transform="translate(-194.5 5352.918)" fill="none" stroke="#ffffff" stroke-width="1"/>
      <line id="Line_190" data-name="Line 190" x2="646" y2="646" transform="translate(835.5 5352.918)" fill="none" stroke="#ffffff" stroke-width="1"/>
      <line id="Line_254" data-name="Line 254" x2="646" y2="646" transform="translate(1511.5 5352.918)" fill="none" stroke="#ffffff" stroke-width="1"/>
      <line id="Line_130" data-name="Line 130" x2="646" y2="646" transform="translate(320.5 5352.918)" fill="none" stroke="#ffffff" stroke-width="1"/>
      <line id="Line_96" data-name="Line 96" x2="646" y2="646" transform="translate(-613.5 5352.918)" fill="none" stroke="#ffffff" stroke-width="1"/>
      <line id="Line_219" data-name="Line 219" x2="646" y2="646" transform="translate(417.5 5352.918)" fill="none" stroke="#ffffff" stroke-width="1"/>
      <line id="Line_155" data-name="Line 155" x2="646" y2="646" transform="translate(-98.5 5352.918)" fill="none" stroke="#ffffff" stroke-width="1"/>
      <line id="Line_191" data-name="Line 191" x2="646" y2="646" transform="translate(932.5 5352.918)" fill="none" stroke="#ffffff" stroke-width="1"/>
      <line id="Line_244" data-name="Line 244" x2="646" y2="646" transform="translate(1608.5 5352.918)" fill="none" stroke="#ffffff" stroke-width="1"/>
      <line id="Line_122" data-name="Line 122" x2="646" y2="646" transform="translate(-355.5 5352.918)" fill="none" stroke="#ffffff" stroke-width="1"/>
      <line id="Line_192" data-name="Line 192" x2="646" y2="646" transform="translate(674.5 5352.918)" fill="none" stroke="#ffffff" stroke-width="1"/>
      <line id="Line_140" data-name="Line 140" x2="646" y2="646" transform="translate(159.5 5352.918)" fill="none" stroke="#ffffff" stroke-width="1"/>
      <line id="Line_174" data-name="Line 174" x2="646" y2="646" transform="translate(1189.5 5352.918)" fill="none" stroke="#ffffff" stroke-width="1"/>
      <line id="Line_235" data-name="Line 235" x2="646" y2="646" transform="translate(1866.5 5352.918)" fill="none" stroke="#ffffff" stroke-width="1"/>
      <line id="Line_107" data-name="Line 107" x2="646" y2="646" transform="translate(-484.5 5352.918)" fill="none" stroke="#ffffff" stroke-width="1"/>
      <line id="Line_211" data-name="Line 211" x2="646" y2="646" transform="translate(545.5 5352.918)" fill="none" stroke="#ffffff" stroke-width="1"/>
      <line id="Line_141" data-name="Line 141" x2="646" y2="646" transform="translate(30.5 5352.918)" fill="none" stroke="#ffffff" stroke-width="1"/>
      <line id="Line_175" data-name="Line 175" x2="646" y2="646" transform="translate(1061.5 5352.918)" fill="none" stroke="#ffffff" stroke-width="1"/>
      <line id="Line_245" data-name="Line 245" x2="646" y2="646" transform="translate(1737.5 5352.918)" fill="none" stroke="#ffffff" stroke-width="1"/>
      <line id="Line_111" data-name="Line 111" x2="646" y2="646" transform="translate(-226.5 5352.918)" fill="none" stroke="#ffffff" stroke-width="1"/>
      <line id="Line_193" data-name="Line 193" x2="646" y2="646" transform="translate(803.5 5352.918)" fill="none" stroke="#ffffff" stroke-width="1"/>
      <line id="Line_259" data-name="Line 259" x2="646" y2="646" transform="translate(1479.5 5352.918)" fill="none" stroke="#ffffff" stroke-width="1"/>
      <line id="Line_131" data-name="Line 131" x2="646" y2="646" transform="translate(288.5 5352.918)" fill="none" stroke="#ffffff" stroke-width="1"/>
      <line id="Line_99" data-name="Line 99" x2="646" y2="646" transform="translate(-548.5 5352.918)" fill="none" stroke="#ffffff" stroke-width="1"/>
      <line id="Line_216" data-name="Line 216" x2="646" y2="646" transform="translate(481.5 5352.918)" fill="none" stroke="#ffffff" stroke-width="1"/>
      <line id="Line_151" data-name="Line 151" x2="646" y2="646" transform="translate(-33.5 5352.918)" fill="none" stroke="#ffffff" stroke-width="1"/>
      <line id="Line_176" data-name="Line 176" x2="646" y2="646" transform="translate(996.5 5352.918)" fill="none" stroke="#ffffff" stroke-width="1"/>
      <line id="Line_246" data-name="Line 246" x2="646" y2="646" transform="translate(1672.5 5352.918)" fill="none" stroke="#ffffff" stroke-width="1"/>
      <line id="Line_117" data-name="Line 117" x2="646" y2="646" transform="translate(-291.5 5352.918)" fill="none" stroke="#ffffff" stroke-width="1"/>
      <line id="Line_194" data-name="Line 194" x2="646" y2="646" transform="translate(739.5 5352.918)" fill="none" stroke="#ffffff" stroke-width="1"/>
      <line id="Line_263" data-name="Line 263" x2="646" y2="646" transform="translate(1415.5 5352.918)" fill="none" stroke="#ffffff" stroke-width="1"/>
      <line id="Line_135" data-name="Line 135" x2="646" y2="646" transform="translate(223.5 5352.918)" fill="none" stroke="#ffffff" stroke-width="1"/>
      <line id="Line_167" data-name="Line 167" x2="646" y2="646" transform="translate(1254.5 5352.918)" fill="none" stroke="#ffffff" stroke-width="1"/>
      <line id="Line_103" data-name="Line 103" x2="646" y2="646" transform="translate(-420.5 5352.918)" fill="none" stroke="#ffffff" stroke-width="1"/>
      <line id="Line_207" data-name="Line 207" x2="646" y2="646" transform="translate(610.5 5352.918)" fill="none" stroke="#ffffff" stroke-width="1"/>
      <line id="Line_142" data-name="Line 142" x2="646" y2="646" transform="translate(95.5 5352.918)" fill="none" stroke="#ffffff" stroke-width="1"/>
      <line id="Line_177" data-name="Line 177" x2="646" y2="646" transform="translate(1125.5 5352.918)" fill="none" stroke="#ffffff" stroke-width="1"/>
      <line id="Line_236" data-name="Line 236" x2="646" y2="646" transform="translate(1801.5 5352.918)" fill="none" stroke="#ffffff" stroke-width="1"/>
      <line id="Line_112" data-name="Line 112" x2="646" y2="646" transform="translate(-162.5 5352.918)" fill="none" stroke="#ffffff" stroke-width="1"/>
      <line id="Line_195" data-name="Line 195" x2="646" y2="646" transform="translate(867.5 5352.918)" fill="none" stroke="#ffffff" stroke-width="1"/>
      <line id="Line_255" data-name="Line 255" x2="646" y2="646" transform="translate(1544.5 5352.918)" fill="none" stroke="#ffffff" stroke-width="1"/>
      <line id="Line_127" data-name="Line 127" x2="646" y2="646" transform="translate(352.5 5352.918)" fill="none" stroke="#ffffff" stroke-width="1"/>
      <line id="Line_95" data-name="Line 95" x2="646" y2="646" transform="translate(-629.5 5352.918)" fill="none" stroke="#ffffff" stroke-width="1"/>
      <line id="Line_220" data-name="Line 220" x2="646" y2="646" transform="translate(401.5 5352.918)" fill="none" stroke="#ffffff" stroke-width="1"/>
      <line id="Line_156" data-name="Line 156" x2="646" y2="646" transform="translate(-114.5 5352.918)" fill="none" stroke="#ffffff" stroke-width="1"/>
      <line id="Line_196" data-name="Line 196" x2="646" y2="646" transform="translate(916.5 5352.918)" fill="none" stroke="#ffffff" stroke-width="1"/>
      <line id="Line_247" data-name="Line 247" x2="646" y2="646" transform="translate(1592.5 5352.918)" fill="none" stroke="#ffffff" stroke-width="1"/>
      <line id="Line_123" data-name="Line 123" x2="646" y2="646" transform="translate(-371.5 5352.918)" fill="none" stroke="#ffffff" stroke-width="1"/>
      <line id="Line_205" data-name="Line 205" x2="646" y2="646" transform="translate(658.5 5352.918)" fill="none" stroke="#ffffff" stroke-width="1"/>
      <line id="Line_143" data-name="Line 143" x2="646" y2="646" transform="translate(143.5 5352.918)" fill="none" stroke="#ffffff" stroke-width="1"/>
      <line id="Line_178" data-name="Line 178" x2="646" y2="646" transform="translate(1173.5 5352.918)" fill="none" stroke="#ffffff" stroke-width="1"/>
      <line id="Line_237" data-name="Line 237" x2="646" y2="646" transform="translate(1850.5 5352.918)" fill="none" stroke="#ffffff" stroke-width="1"/>
      <line id="Line_108" data-name="Line 108" x2="646" y2="646" transform="translate(-500.5 5352.918)" fill="none" stroke="#ffffff" stroke-width="1"/>
      <line id="Line_212" data-name="Line 212" x2="646" y2="646" transform="translate(529.5 5352.918)" fill="none" stroke="#ffffff" stroke-width="1"/>
      <line id="Line_149" data-name="Line 149" x2="646" y2="646" transform="translate(14.5 5352.918)" fill="none" stroke="#ffffff" stroke-width="1"/>
      <line id="Line_179" data-name="Line 179" x2="646" y2="646" transform="translate(1045.5 5352.918)" fill="none" stroke="#ffffff" stroke-width="1"/>
      <line id="Line_248" data-name="Line 248" x2="646" y2="646" transform="translate(1721.5 5352.918)" fill="none" stroke="#ffffff" stroke-width="1"/>
      <line id="Line_118" data-name="Line 118" x2="646" y2="646" transform="translate(-242.5 5352.918)" fill="none" stroke="#ffffff" stroke-width="1"/>
      <line id="Line_197" data-name="Line 197" x2="646" y2="646" transform="translate(787.5 5352.918)" fill="none" stroke="#ffffff" stroke-width="1"/>
      <line id="Line_260" data-name="Line 260" x2="646" y2="646" transform="translate(1463.5 5352.918)" fill="none" stroke="#ffffff" stroke-width="1"/>
      <line id="Line_132" data-name="Line 132" x2="646" y2="646" transform="translate(272.5 5352.918)" fill="none" stroke="#ffffff" stroke-width="1"/>
      <line id="Line_98" data-name="Line 98" x2="646" y2="646" transform="translate(-564.5 5352.918)" fill="none" stroke="#ffffff" stroke-width="1"/>
      <line id="Line_217" data-name="Line 217" x2="646" y2="646" transform="translate(465.5 5352.918)" fill="none" stroke="#ffffff" stroke-width="1"/>
      <line id="Line_152" data-name="Line 152" x2="646" y2="646" transform="translate(-49.5 5352.918)" fill="none" stroke="#ffffff" stroke-width="1"/>
      <line id="Line_180" data-name="Line 180" x2="646" y2="646" transform="translate(980.5 5352.918)" fill="none" stroke="#ffffff" stroke-width="1"/>
      <line id="Line_249" data-name="Line 249" x2="646" y2="646" transform="translate(1656.5 5352.918)" fill="none" stroke="#ffffff" stroke-width="1"/>
      <line id="Line_124" data-name="Line 124" x2="646" y2="646" transform="translate(-307.5 5352.918)" fill="none" stroke="#ffffff" stroke-width="1"/>
      <line id="Line_198" data-name="Line 198" x2="646" y2="646" transform="translate(723.5 5352.918)" fill="none" stroke="#ffffff" stroke-width="1"/>
      <line id="Line_136" data-name="Line 136" x2="646" y2="646" transform="translate(207.5 5352.918)" fill="none" stroke="#ffffff" stroke-width="1"/>
      <line id="Line_168" data-name="Line 168" x2="646" y2="646" transform="translate(1238.5 5352.918)" fill="none" stroke="#ffffff" stroke-width="1"/>
      <line id="Line_232" data-name="Line 232" x2="646" y2="646" transform="translate(1914.5 5352.918)" fill="none" stroke="#ffffff" stroke-width="1"/>
      <line id="Line_104" data-name="Line 104" x2="646" y2="646" transform="translate(-436.5 5352.918)" fill="none" stroke="#ffffff" stroke-width="1"/>
      <line id="Line_208" data-name="Line 208" x2="646" y2="646" transform="translate(594.5 5352.918)" fill="none" stroke="#ffffff" stroke-width="1"/>
      <line id="Line_144" data-name="Line 144" x2="646" y2="646" transform="translate(79.5 5352.918)" fill="none" stroke="#ffffff" stroke-width="1"/>
      <line id="Line_181" data-name="Line 181" x2="646" y2="646" transform="translate(1109.5 5352.918)" fill="none" stroke="#ffffff" stroke-width="1"/>
      <line id="Line_238" data-name="Line 238" x2="646" y2="646" transform="translate(1785.5 5352.918)" fill="none" stroke="#ffffff" stroke-width="1"/>
      <line id="Line_113" data-name="Line 113" x2="646" y2="646" transform="translate(-178.5 5352.918)" fill="none" stroke="#ffffff" stroke-width="1"/>
      <line id="Line_199" data-name="Line 199" x2="646" y2="646" transform="translate(851.5 5352.918)" fill="none" stroke="#ffffff" stroke-width="1"/>
      <line id="Line_256" data-name="Line 256" x2="646" y2="646" transform="translate(1528.5 5352.918)" fill="none" stroke="#ffffff" stroke-width="1"/>
      <line id="Line_128" data-name="Line 128" x2="646" y2="646" transform="translate(336.5 5352.918)" fill="none" stroke="#ffffff" stroke-width="1"/>
      <line id="Line_97" data-name="Line 97" x2="646" y2="646" transform="translate(-597.5 5352.918)" fill="none" stroke="#ffffff" stroke-width="1"/>
      <line id="Line_218" data-name="Line 218" x2="646" y2="646" transform="translate(433.5 5352.918)" fill="none" stroke="#ffffff" stroke-width="1"/>
      <line id="Line_154" data-name="Line 154" x2="646" y2="646" transform="translate(-81.5 5352.918)" fill="none" stroke="#ffffff" stroke-width="1"/>
      <line id="Line_182" data-name="Line 182" x2="646" y2="646" transform="translate(948.5 5352.918)" fill="none" stroke="#ffffff" stroke-width="1"/>
      <line id="Line_250" data-name="Line 250" x2="646" y2="646" transform="translate(1624.5 5352.918)" fill="none" stroke="#ffffff" stroke-width="1"/>
      <line id="Line_125" data-name="Line 125" x2="646" y2="646" transform="translate(-339.5 5352.918)" fill="none" stroke="#ffffff" stroke-width="1"/>
      <line id="Line_200" data-name="Line 200" x2="646" y2="646" transform="translate(690.5 5352.918)" fill="none" stroke="#ffffff" stroke-width="1"/>
      <line id="Line_145" data-name="Line 145" x2="646" y2="646" transform="translate(175.5 5352.918)" fill="none" stroke="#ffffff" stroke-width="1"/>
      <line id="Line_183" data-name="Line 183" x2="646" y2="646" transform="translate(1206.5 5352.918)" fill="none" stroke="#ffffff" stroke-width="1"/>
      <line id="Line_239" data-name="Line 239" x2="646" y2="646" transform="translate(1882.5 5352.918)" fill="none" stroke="#ffffff" stroke-width="1"/>
      <line id="Line_109" data-name="Line 109" x2="646" y2="646" transform="translate(-468.5 5352.918)" fill="none" stroke="#ffffff" stroke-width="1"/>
      <line id="Line_213" data-name="Line 213" x2="646" y2="646" transform="translate(562.5 5352.918)" fill="none" stroke="#ffffff" stroke-width="1"/>
      <line id="Line_146" data-name="Line 146" x2="646" y2="646" transform="translate(46.5 5352.918)" fill="none" stroke="#ffffff" stroke-width="1"/>
      <line id="Line_184" data-name="Line 184" x2="646" y2="646" transform="translate(1077.5 5352.918)" fill="none" stroke="#ffffff" stroke-width="1"/>
      <line id="Line_251" data-name="Line 251" x2="646" y2="646" transform="translate(1753.5 5352.918)" fill="none" stroke="#ffffff" stroke-width="1"/>
      <line id="Line_114" data-name="Line 114" x2="646" y2="646" transform="translate(-210.5 5352.918)" fill="none" stroke="#ffffff" stroke-width="1"/>
      <line id="Line_201" data-name="Line 201" x2="646" y2="646" transform="translate(819.5 5352.918)" fill="none" stroke="#ffffff" stroke-width="1"/>
      <line id="Line_258" data-name="Line 258" x2="646" y2="646" transform="translate(1495.5 5352.918)" fill="none" stroke="#ffffff" stroke-width="1"/>
      <line id="Line_133" data-name="Line 133" x2="646" y2="646" transform="translate(304.5 5352.918)" fill="none" stroke="#ffffff" stroke-width="1"/>
      <line id="Line_100" data-name="Line 100" x2="646" y2="646" transform="translate(-532.5 5352.918)" fill="none" stroke="#ffffff" stroke-width="1"/>
      <line id="Line_214" data-name="Line 214" x2="646" y2="646" transform="translate(497.5 5352.918)" fill="none" stroke="#ffffff" stroke-width="1"/>
      <line id="Line_150" data-name="Line 150" x2="646" y2="646" transform="translate(-17.5 5352.918)" fill="none" stroke="#ffffff" stroke-width="1"/>
      <line id="Line_185" data-name="Line 185" x2="646" y2="646" transform="translate(1012.5 5352.918)" fill="none" stroke="#ffffff" stroke-width="1"/>
      <line id="Line_252" data-name="Line 252" x2="646" y2="646" transform="translate(1689.5 5352.918)" fill="none" stroke="#ffffff" stroke-width="1"/>
      <line id="Line_119" data-name="Line 119" x2="646" y2="646" transform="translate(-275.5 5352.918)" fill="none" stroke="#ffffff" stroke-width="1"/>
      <line id="Line_202" data-name="Line 202" x2="646" y2="646" transform="translate(755.5 5352.918)" fill="none" stroke="#ffffff" stroke-width="1"/>
      <line id="Line_262" data-name="Line 262" x2="646" y2="646" transform="translate(1431.5 5352.918)" fill="none" stroke="#ffffff" stroke-width="1"/>
      <line id="Line_134" data-name="Line 134" x2="646" y2="646" transform="translate(240.5 5352.918)" fill="none" stroke="#ffffff" stroke-width="1"/>
      <line id="Line_169" data-name="Line 169" x2="646" y2="646" transform="translate(1270.5 5352.918)" fill="none" stroke="#ffffff" stroke-width="1"/>
      <line id="Line_102" data-name="Line 102" x2="646" y2="646" transform="translate(-403.5 5352.918)" fill="none" stroke="#ffffff" stroke-width="1"/>
      <line id="Line_206" data-name="Line 206" x2="646" y2="646" transform="translate(626.5 5352.918)" fill="none" stroke="#ffffff" stroke-width="1"/>
      <line id="Line_147" data-name="Line 147" x2="646" y2="646" transform="translate(111.5 5352.918)" fill="none" stroke="#ffffff" stroke-width="1"/>
      <line id="Line_186" data-name="Line 186" x2="646" y2="646" transform="translate(1141.5 5352.918)" fill="none" stroke="#ffffff" stroke-width="1"/>
      <line id="Line_240" data-name="Line 240" x2="646" y2="646" transform="translate(1817.5 5352.918)" fill="none" stroke="#ffffff" stroke-width="1"/>
      <line id="Line_115" data-name="Line 115" x2="646" y2="646" transform="translate(-146.5 5352.918)" fill="none" stroke="#ffffff" stroke-width="1"/>
      <line id="Line_203" data-name="Line 203" x2="646" y2="646" transform="translate(884.5 5352.918)" fill="none" stroke="#ffffff" stroke-width="1"/>
      <line id="Line_257" data-name="Line 257" x2="646" y2="646" transform="translate(1560.5 5352.918)" fill="none" stroke="#ffffff" stroke-width="1"/>
      <line id="Line_126" data-name="Line 126" x2="646" y2="646" transform="translate(368.5 5352.918)" fill="none" stroke="#ffffff" stroke-width="1"/>
      <line id="Line_165" data-name="Line 165" x2="646" y2="646" transform="translate(1286.5 5352.918)" fill="none" stroke="#ffffff" stroke-width="1"/>
      <line id="Line_158" data-name="Line 158" x2="646" y2="646" transform="translate(1350.5 5352.918)" fill="none" stroke="#ffffff" stroke-width="1"/>
      <line id="Line_159" data-name="Line 159" x2="646" y2="646" transform="translate(1318.5 5352.918)" fill="none" stroke="#ffffff" stroke-width="1"/>
      <line id="Line_160" data-name="Line 160" x2="646" y2="646" transform="translate(1383.5 5352.918)" fill="none" stroke="#ffffff" stroke-width="1"/>
      <line id="Line_161" data-name="Line 161" x2="646" y2="646" transform="translate(1302.5 5352.918)" fill="none" stroke="#ffffff" stroke-width="1"/>
      <line id="Line_162" data-name="Line 162" x2="646" y2="646" transform="translate(1367.5 5352.918)" fill="none" stroke="#ffffff" stroke-width="1"/>
      <line id="Line_163" data-name="Line 163" x2="646" y2="646" transform="translate(1334.5 5352.918)" fill="none" stroke="#ffffff" stroke-width="1"/>
      <line id="Line_164" data-name="Line 164" x2="646" y2="646" transform="translate(1399.5 5352.918)" fill="none" stroke="#ffffff" stroke-width="1"/>
      <line id="Line_94" data-name="Line 94" x2="646" y2="646" transform="translate(-645.5 5352.918)" fill="none" stroke="#ffffff" stroke-width="1"/>
    </g>
  </g>
</svg>
